<svg height="682pt" viewBox="-21 -21 682.6655 682" width="682pt" xmlns="http://www.w3.org/2000/svg" xmlns:xlink="http://www.w3.org/1999/xlink"><linearGradient id="linear0" gradientTransform="matrix(1.111121 0 0 -1.111121 0 629.230505)" gradientUnits="userSpaceOnUse" x1="287.9968" x2="287.9968" y1="566.0024" y2="-9.9868"><stop offset="0" stop-color="#f5085d"/><stop offset=".017" stop-color="#f6115f"/><stop offset=".0867" stop-color="#f93368"/><stop offset=".1583" stop-color="#fc4d6f"/><stop offset=".2317" stop-color="#fe5f73"/><stop offset=".3078" stop-color="#ff6a76"/><stop offset=".3911" stop-color="#ff6e77"/><stop offset=".6374" stop-color="#b53b92"/><stop offset=".8253" stop-color="#8218a4"/><stop offset=".9175" stop-color="#6f0bab"/></linearGradient><path d="m310 100.328125c0 5.527344-4.472656 10-10 10h-10c-5.527344 0-10-4.472656-10-10s4.472656-10 10-10h10c5.527344 0 10 4.472656 10 10zm40-10h-10c-5.527344 0-10 4.472656-10 10s4.472656 10 10 10h10c5.527344 0 10-4.472656 10-10s-4.472656-10-10-10zm290 530v10c0 5.527344-4.472656 10-10 10h-140c-17.753906 0-32.660156-11.695313-37.875-27.730469l-29.703125 7.425782c-.460937.117187-.9375.207031-1.417969.253906l-18.152344 1.839844-1.074218 3.582031c-2.472656 8.574219-10.539063 14.628906-19.582032 14.628906-9.066406 0-16.691406-5.992187-19.382812-14.210937l-41.828125 4.160156c-.320313.03125-.652344.050781-.984375.050781s-.664062-.019531-.988281-.050781l-41.820313-4.160156c-2.695312 8.21875-10.320312 14.210937-19.390625 14.210937-9.042969 0-17.109375-6.054687-19.609375-14.726563l-1.082031-3.488281-18.117187-1.835937-40.96875-8.160156c-5.070313 16.285156-20.09375 28.210937-38.023438 28.210937h-130c-5.527344 0-10-4.472656-10-10v-10c0-13.378906 8.808594-24.746094 20.925781-28.605469 2.96875-13.464844 12.746094-24.421875 25.527344-29.03125l-23.742187-63.316406c-13.019532-3.277344-22.710938-15.03125-22.710938-29.046875 0-28.46875 11.082031-55.226563 31.210938-75.351563l19.714843-19.71875 49.347657-207.246093c.035156-.136719.121093-.234375.15625-.371094.113281-.394531.316406-.746094.476562-1.132813.332031-.792968.71875-1.535156 1.230469-2.191406.117187-.15625.148437-.347656.273437-.492187l58.722656-68.515625 18.589844-55.761719.773438-2.355469c.089844-.257812.265625-.457031.371094-.707031.210937-.507813.457031-.984375.753906-1.453125.21875-.347656.429687-.679688.6875-.992188.136718-.171874.257812-.332031.410156-.492187.082031-.089844.128906-.203125.210938-.289063l20-20c1.875-1.875 4.417968-2.929687 7.070312-2.929687h29.375l79.390625-9.921875c.8125-.097656 1.652344-.097656 2.472656 0l79.386719 9.921875h29.375c2.65625 0 5.195312 1.054687 7.070312 2.929687l20 20c.085938.085938.125.195313.210938.28125.148438.164063.277344.332032.417969.507813.253906.308594.464843.640625.679687.984375.296875.46875.542969.949219.757813 1.457031.101562.246094.28125.449219.363281.710938l.859375 2.597656 18.507813 55.515625 58.71875 68.511719c.109374.125.125.300781.226562.433593.78125 1.007813 1.40625 2.125 1.761719 3.402344.03125.109375.101562.195313.128906.300782.003906.019531.019531.03125.023437.058593l49.34375 207.238281 19.71875 19.71875c20.125 20.125 31.210938 46.882813 31.210938 75.355469 0 14.019531-9.6875 25.765625-22.710938 29.042969l-23.746093 63.320312c12.785156 4.605469 22.558593 15.566407 25.527343 29.03125 12.121094 3.855469 20.929688 15.222657 20.929688 28.601563zm-170-424.375c0-8.476563-2.226562-16.855469-6.4375-24.230469l-29.890625-52.3125-55.3125-9.21875c-4.824219-.800781-8.359375-4.972656-8.359375-9.863281 0-7.65625-4.882812-14.425781-12.140625-16.847656l-32.246094-10.730469c-3.679687-1.230469-7.566406-1.222656-11.230469-.011719l-32.246093 10.753907c-7.253907 2.410156-12.136719 9.179687-12.136719 16.835937 0 4.890625-3.535156 9.0625-8.359375 9.863281l-55.3125 9.21875-29.894531 52.3125c-4.207032 7.375-6.433594 15.753906-6.433594 24.230469 0 12.96875 5.019531 25.164063 14.140625 34.375h65.859375c8.523438 0 16.191406-4.738281 20-12.363281l12.109375-24.21875c7.214844-14.445313 21.738281-23.417969 37.890625-23.417969s30.671875 8.972656 37.886719 23.417969l12.109375 24.21875c3.808594 7.625 11.472656 12.363281 20 12.363281h65.859375c9.125-9.210937 14.144531-21.40625 14.144531-34.375zm-209.371094 52.976563c-.21875.058593-.410156.171874-.628906.226562v16.171875l12 9.003906c13.761719 10.3125 30.8125 15.996094 48 15.996094s34.238281-5.683594 48.007812-15.996094l11.992188-9.003906v-16.171875c-.214844-.050781-.410156-.167969-.625-.226562-2.578125-.65625-5.070312-1.550782-7.445312-2.667969-.488282-.230469-.945313-.5-1.417969-.75-2.144531-1.105469-4.183594-2.382813-6.101563-3.839844-.3125-.242187-.640625-.4375-.949218-.679687-2.070313-1.671876-3.949219-3.570313-5.6875-5.625-.390626-.464844-.761719-.941407-1.136719-1.425782-1.691407-2.1875-3.257813-4.488281-4.527344-7.03125l-12.109375-24.21875c-3.808594-7.628906-11.476562-12.363281-20-12.363281-8.527344 0-16.191406 4.734375-20 12.363281l-12.109375 24.21875c-1.269531 2.542969-2.835937 4.84375-4.527344 7.03125-.375.484375-.742187.960938-1.136719 1.425782-1.738281 2.054687-3.617187 3.953124-5.683593 5.625-.308594.242187-.640625.4375-.953125.679687-1.917969 1.457031-3.960938 2.734375-6.097656 3.839844-.480469.25-.933594.519531-1.417969.75-2.382813 1.117187-4.867188 2.003906-7.445313 2.667969zm-3.023437 111.425781c40.992187 11.265625 83.796875 11.265625 124.785156 0 .289063-23.742188.019531-47.546875-.628906-71.339844l-1.753907 1.3125c-17.214843 12.898437-38.523437 20-60.007812 20s-42.792969-7.101563-60-20l-1.761719-1.324219c-.652343 23.878906-.917969 47.679688-.632812 71.351563zm-49.199219-292.578125 8.761719-8.757813c-4.875-5.480469-11.914063-8.691406-19.570313-8.691406h-.363281l-.632813 1.933594c-1.183593 3.496093 4.304688 10.3125 11.804688 15.515625zm235.011719-15.46875-1.015625-1.980469c-7.65625 0-14.699219 3.210937-19.570313 8.691406l8.769531 8.757813c7.488282-5.203125 12.976563-12.011719 11.816407-15.46875zm-231.503907-19.753906c.40625.132812.761719.367187 1.160157.507812 2.082031.730469 4.089843 1.601562 6.027343 2.617188.59375.3125 1.195313.59375 1.777344.933593 2.3125 1.347657 4.519532 2.855469 6.566406 4.589844.316407.261719.589844.574219.898438.851563 1.734375 1.554687 3.339844 3.253906 4.835938 5.070312.457031.5625.90625 1.117188 1.339843 1.699219 1.648438 2.210937 3.179688 4.527343 4.433594 7.058593 1.914063 3.847657 1.152344 8.476563-1.882813 11.515626l-18.332031 18.328124-4.003906 12.003907 36.261719-6.035157c2.9375-12.558593 12.175781-22.96875 24.8125-27.179687l32.246094-10.75c7.695312-2.558594 16.191406-2.570313 23.886718.007813l32.246094 10.734374c12.636719 4.21875 21.875 14.628907 24.816406 27.1875l36.257813 6.035157-4.003907-12.003907-18.328124-18.328124c-3.039063-3.039063-3.800782-7.667969-1.886719-11.515626 1.257812-2.53125 2.789062-4.851562 4.433593-7.058593.4375-.585938.886719-1.136719 1.34375-1.699219 1.496094-1.816406 3.101563-3.515625 4.835938-5.070312.3125-.273438.578125-.585938.898438-.851563 2.050781-1.734375 4.257812-3.25 6.570312-4.589844.582031-.339843 1.175781-.621093 1.773438-.933593 1.9375-1.015626 3.945312-1.886719 6.023437-2.617188.402344-.140625.757813-.375 1.164063-.507812l-2.226563-2.226563h-25.859375c-.410156 0-.832031-.03125-1.242188-.078125l-78.757812-9.84375-78.761719 9.84375c-.410156.046875-.828125.078125-1.238281.078125h-25.859375zm-51.945312 568.886718-18.425781-73.730468-44.140625-17.65625-52.121094-7.441407 21.652344 57.714844h23.066406c5.527344 0 10 4.472656 10 10s-4.472656 10-10 10h-30c-7.367188 0-13.746094 4.050781-17.21875 10h37.21875c5.527344 0 10 4.472656 10 10s-4.472656 10-10 10h-50c-5.519531 0-10 4.480469-10 10h120c10.652344 0 19.394531-8.378906 19.96875-18.886719zm61.992188-.917968 9.113281.902343c-22.785157-79.042969-38.136719-160.558593-45.503907-242.320312-1.675781-.84375-3.167968-2.003907-4.144531-3.632813l-30-50c-2.84375-4.734375-1.308593-10.878906 3.425781-13.71875 4.738282-2.84375 10.878907-1.308594 13.722657 3.425782l13.835937 23.066406c-1.125-18.539063-1.855468-37.25-2.171875-56.035156l-1.292969 2.589843c-1.757812 3.503907-5.285156 5.527344-8.957031 5.527344-1.503906 0-3.027343-.34375-4.460937-1.054687-4.941406-2.472657-6.945313-8.476563-4.472656-13.417969l6.855468-13.707031c-2.519531-2.773438-4.820312-5.679688-6.828125-8.765626l-4.011719 4.015626c-1.953124 1.953124-4.511718 2.929687-7.070312 2.929687s-5.117188-.976563-7.070312-2.929687c-3.90625-3.90625-3.90625-10.234376 0-14.140626l9.46875-9.46875c-.675782-2.519531-1.191407-5.082031-1.578126-7.691406l-6.347656 3.175782c-1.4375.71875-2.960937 1.054687-4.464844 1.054687-3.671874 0-7.195312-2.023437-8.953124-5.527344-2.472657-4.941406-.46875-10.949219 4.472656-13.417969l15.75-7.875c.195312-1.0625.382812-2.125.625-3.179687h-11.902344c-5.527344 0-10-4.472656-10-10s4.472656-10 10-10h19.910156l30.925782-54.113281 7.121093-21.375c-3.480469-2.300782-6.757812-4.902344-9.667969-7.769532l-8.808593 26.421876c-.398438 1.21875-1.042969 2.363281-1.894531 3.339843l-56.742188 66.199219 18.921875 85.128906c.222656 1.035156.292969 2.109375.183594 3.164063l-4.375 43.710937c-3.269531 32.773438 8.214843 64.929688 31.496093 88.222656 3.90625 3.910157 3.90625 10.234376 0 14.140626s-10.234374 3.90625-14.140624 0c-27.550782-27.539063-41.125-65.578126-37.257813-104.355469l4.21875-42.109375-10.222656-46.015625-38.628907 162.203125c30.386719 30.09375 65.148438 55.109375 103.433594 74.261718 4.941406 2.46875 6.941406 8.476563 4.472656 13.417969-1.757812 3.503907-5.285156 5.527344-8.957031 5.527344-1.503906 0-3.027343-.34375-4.460937-1.054687-38.882813-19.449219-74.292969-44.667969-105.441406-74.894532l-14.734376 14.738282c-16.347656 16.347656-25.351562 38.085937-25.351562 61.210937 0 5.515625 4.480469 10 10 10 .46875 0 .945312.027344 1.414062.097656l70 10c.792969.117188 1.5625.320313 2.296876.613281l50 20c.339843.136719.550781.449219.867187.621094.46875.242188.984375.347656 1.417969.667969l40 30c4.421875 3.3125 5.320312 9.582031 2 13.996094-1.960938 2.625-4.960938 4.003906-8.007813 4.003906-2.089843 0-4.1875-.65625-5.984375-2.003906l-17.480468-13.109375 11.640624 46.546875zm36.339843 19.207031h.828125c-.046875-.09375-.101562-.179688-.144531-.273438l-.683594-.019531c-.148437-.449219-.304687-1.816406-.429687-3.09375-12.121094-80.695312-18.957032-164.277344-20.273438-248.164062-.636718-39.179688-.011718-78.769532 1.882813-117.851563h-9.480469v10c0 5.527344-4.472656 10-10 10s-10-4.472656-10-10v-10h-9.960938c.261719 33.886719 1.882813 67.683594 4.824219 100.613281 7.410157 87.179688 24.003907 174.140625 49.316407 258.515625.046874.175781.136718.519531.203124.839844l2.96875 9.5625zm105.035157-13.765625c10.710937-73.851563 16.921874-149.148438 18.636718-224.800782-20.402344 5.105469-41.175781 7.804688-61.972656 7.804688s-41.574219-2.699219-61.976562-7.804688c1.722656 75.890626 7.949218 151.382813 18.652343 224.800782l43.324219 4.3125zm19.28125 13.992187 2.996093-10c.097657-.332031.214844-.664062.351563-.976562 25.226562-84.230469 41.769531-171.027344 49.171875-258 .003906-.050781.003906-.105469.007812-.15625 0-.003907 0-.011719 0-.019531 2.929688-32.914063 4.550781-66.648438 4.816407-100.476563h-9.960938v10c0 5.527344-4.472656 10-10 10s-10-4.472656-10-10v-10h-9.484375c1.886719 38.894531 2.53125 78.582031 1.886719 117.859375-1.320313 83.878906-8.15625 167.460938-20.3125 248.429688-.089844 1.003906-.246094 2.371093-.5 3.621093.011718-.027343 1.015625-.253906 1.027344-.28125zm69.859374-28.058593 16.140626-43.035157-12.621094 9.460938c-1.796875 1.347656-3.898438 2.003906-5.988282 2.003906-3.046874 0-6.042968-1.378906-8.007812-4.003906-3.320312-4.414063-2.421875-10.683594 2.003906-13.996094l40-30c.378906-.28125.828125-.367187 1.234375-.589844.371094-.207031.648438-.539062 1.050781-.699219l50-20c.730469-.292968 1.503907-.496093 2.292969-.613281l70-10c.46875-.070312.949219-.097656 1.417969-.097656 5.515625 0 10-4.484375 10-10 0-23.125-9.003906-44.863281-25.351562-61.210937l-14.742188-14.742188c-31.140625 30.230469-66.558594 55.449219-105.433594 74.898438-1.4375.710937-2.960937 1.054687-4.464844 1.054687-3.671874 0-7.195312-2.023437-8.953124-5.527344-2.472657-4.941406-.46875-10.949219 4.472656-13.417969 38.285156-19.152343 73.046875-44.167968 103.429687-74.261718l-38.621093-162.1875-10.230469 46.015625 4.21875 42.09375c3.867187 38.777343-9.707031 76.816406-37.253907 104.355469-3.90625 3.90625-10.234374 3.90625-14.140624 0s-3.90625-10.234376 0-14.140626c23.28125-23.292968 34.765624-55.449218 31.492187-88.222656l-4.375-43.710937c-.105469-1.054688-.039063-2.128907.1875-3.164063l18.914063-85.117187-56.738282-66.210938c-.847656-.976562-1.492187-2.121093-1.894531-3.339843l-8.808594-26.417969c-2.910156 2.859375-6.183593 5.464843-9.667969 7.765625l7.125 21.375 30.921876 54.113281h19.914062c5.527344 0 10 4.472656 10 10s-4.472656 10-10 10h-11.90625c.246094 1.050781.429688 2.113281.625 3.179687l15.753906 7.875c4.941406 2.46875 6.941406 8.476563 4.472656 13.417969-1.757812 3.503907-5.285156 5.527344-8.957031 5.527344-1.503906 0-3.027343-.34375-4.460937-1.054687l-6.347656-3.175782c-.386719 2.605469-.902344 5.167969-1.578126 7.691406l9.46875 9.46875c3.90625 3.90625 3.90625 10.234376 0 14.140626-1.953124 1.953124-4.511718 2.929687-7.070312 2.929687s-5.117188-.976563-7.070312-2.929687l-4.015626-4.015626c-2.003906 3.082032-4.308593 5.992188-6.824218 8.761719l6.855468 13.710938c2.46875 4.941406.46875 10.945312-4.472656 13.417969-1.4375.710937-2.960937 1.054687-4.464844 1.054687-3.671874 0-7.195312-2.023437-8.953124-5.527344l-1.292969-2.589843c-.320313 18.78125-1.046875 37.488281-2.175781 56.035156l13.839843-23.066406c2.839844-4.734376 8.972657-6.269532 13.71875-3.425782 4.738281 2.839844 6.269531 8.984375 3.429688 13.71875l-30 50c-.972657 1.628906-2.472657 2.789063-4.140625 3.632813-7.355469 81.597656-22.671875 162.992187-45.503906 242.289062l9.339843-.941406zm167.523438 28.429687c0-5.519531-4.484375-10-10-10h-50c-5.527344 0-10-4.472656-10-10s4.472656-10 10-10h37.214844c-3.472656-5.949219-9.847656-10-17.214844-10h-30c-5.527344 0-10-4.472656-10-10s4.472656-10 10-10h23.066406l21.648438-57.714844-52.117188 7.441407-44.785156 17.917968-27.746094 73.996094c.832032 10.261719 9.453125 18.359375 19.933594 18.359375zm-220-440c-5.527344 0-10 4.472656-10 10v10c0 5.527344 4.472656 10 10 10s10-4.472656 10-10v-10c0-5.527344-4.472656-10-10-10zm40 0c-5.527344 0-10 4.472656-10 10v10c0 5.527344 4.472656 10 10 10s10-4.472656 10-10v-10c0-5.527344-4.472656-10-10-10zm-50-40c0-5.527344-4.472656-10-10-10s-10 4.472656-10 10v10c0 5.527344 4.472656 10 10 10s10-4.472656 10-10zm-50-10c-5.527344 0-10 4.472656-10 10v10c0 5.527344 4.472656 10 10 10s10-4.472656 10-10v-10c0-5.527344-4.472656-10-10-10zm90 10c0-5.527344-4.472656-10-10-10s-10 4.472656-10 10v10c0 5.527344 4.472656 10 10 10s10-4.472656 10-10zm-190 40c-5.527344 0-10 4.472656-10 10v10c0 5.527344 4.472656 10 10 10s10-4.472656 10-10v-10c0-5.527344-4.472656-10-10-10zm-40 0c-5.527344 0-10 4.472656-10 10v10c0 5.527344 4.472656 10 10 10s10-4.472656 10-10v-10c0-5.527344-4.472656-10-10-10zm60-50c-5.527344 0-10 4.472656-10 10v10c0 5.527344 4.472656 10 10 10s10-4.472656 10-10v-10c0-5.527344-4.472656-10-10-10zm40 0c-5.527344 0-10 4.472656-10 10v10c0 5.527344 4.472656 10 10 10s10-4.472656 10-10v-10c0-5.527344-4.472656-10-10-10zm-70 10c0-5.527344-4.472656-10-10-10s-10 4.472656-10 10v10c0 5.527344 4.472656 10 10 10s10-4.472656 10-10zm129.480469 336.835937c-1.738281-5.234374-7.371094-8.085937-12.644531-6.320312-17.304688 5.761719-36.367188 5.761719-53.671876 0-5.285156-1.765625-10.898437 1.085938-12.648437 6.320312-1.746094 5.242188 1.085937 10.898438 6.320313 12.644532 10.691406 3.574218 21.921874 5.351562 33.164062 5.351562 11.238281 0 22.46875-1.777344 33.164062-5.351562 5.234376-1.746094 8.066407-7.402344 6.316407-12.644532zm0 0" fill="url(#linear0)"/></svg>